<mxfile host="app.diagrams.net" agent="Mozilla/5.0 (Macintosh; Intel Mac OS X 10_15_7) AppleWebKit/537.36 (KHTML, like Gecko) Chrome/131.0.0.0 Safari/537.36" border="50" scale="3" compressed="false" locked="false" version="26.0.5">
  <diagram name="Blank" id="YmL12bMKpDGza6XwsDPr">
    <mxGraphModel dx="2161" dy="703" grid="0" gridSize="10" guides="1" tooltips="1" connect="1" arrows="1" fold="1" page="0" pageScale="1" pageWidth="827" pageHeight="1169" background="none" math="1" shadow="0">
      <root>
        <mxCell id="X5NqExCQtvZxIxQ7pmgY-0" />
        <mxCell id="1" parent="X5NqExCQtvZxIxQ7pmgY-0" />
        <mxCell id="Gr0Zq-AI6Quabplr0KPa-179" value="Mindmap" style="swimlane;html=1;startSize=20;horizontal=1;containerType=tree;labelBackgroundColor=none;strokeColor=#D4E1F5;strokeWidth=1;fillColor=none;fontFamily=Comic Sans MS;fontSize=9;swimlaneLine=0;dashed=1;collapsible=0;" parent="1" vertex="1">
          <mxGeometry x="-552" y="54" width="1166" height="479" as="geometry" />
        </mxCell>
        <mxCell id="Gr0Zq-AI6Quabplr0KPa-180" value="&lt;font face=&quot;Comic Sans MS&quot;&gt;Transformer&lt;/font&gt;" style="ellipse;whiteSpace=wrap;html=1;align=center;container=1;recursiveResize=0;treeFolding=1;strokeWidth=2;" parent="Gr0Zq-AI6Quabplr0KPa-179" vertex="1">
          <mxGeometry x="563" y="131.5" width="108" height="53" as="geometry" />
        </mxCell>
        <mxCell id="ft4Egp74w97PXZR5ruX3-3" value="Encoder" style="whiteSpace=wrap;html=1;rounded=1;arcSize=50;align=center;verticalAlign=middle;strokeWidth=1;autosize=1;spacing=4;treeFolding=1;treeMoving=1;newEdgeStyle={&quot;edgeStyle&quot;:&quot;entityRelationEdgeStyle&quot;,&quot;startArrow&quot;:&quot;none&quot;,&quot;endArrow&quot;:&quot;none&quot;,&quot;segment&quot;:10,&quot;curved&quot;:1,&quot;sourcePerimeterSpacing&quot;:0,&quot;targetPerimeterSpacing&quot;:0};" parent="Gr0Zq-AI6Quabplr0KPa-179" vertex="1">
          <mxGeometry x="841" y="69" width="84" height="30" as="geometry" />
        </mxCell>
        <mxCell id="ft4Egp74w97PXZR5ruX3-14" value="Decoder" style="whiteSpace=wrap;html=1;rounded=1;arcSize=50;align=center;verticalAlign=middle;strokeWidth=1;autosize=1;spacing=4;treeFolding=1;treeMoving=1;newEdgeStyle={&quot;edgeStyle&quot;:&quot;entityRelationEdgeStyle&quot;,&quot;startArrow&quot;:&quot;none&quot;,&quot;endArrow&quot;:&quot;none&quot;,&quot;segment&quot;:10,&quot;curved&quot;:1,&quot;sourcePerimeterSpacing&quot;:0,&quot;targetPerimeterSpacing&quot;:0};" parent="Gr0Zq-AI6Quabplr0KPa-179" vertex="1">
          <mxGeometry x="841" y="137" width="84" height="30" as="geometry" />
        </mxCell>
        <mxCell id="J5UMj2HyUjdVjFuxVJdH-1" value="" style="edgeStyle=entityRelationEdgeStyle;startArrow=none;endArrow=none;segment=10;curved=1;sourcePerimeterSpacing=0;targetPerimeterSpacing=0;rounded=0;exitX=1;exitY=0.5;exitDx=0;exitDy=0;" parent="Gr0Zq-AI6Quabplr0KPa-179" source="ft4Egp74w97PXZR5ruX3-3" target="J5UMj2HyUjdVjFuxVJdH-2" edge="1">
          <mxGeometry relative="1" as="geometry">
            <mxPoint x="835" y="250" as="sourcePoint" />
          </mxGeometry>
        </mxCell>
        <mxCell id="J5UMj2HyUjdVjFuxVJdH-2" value="Bert&lt;div&gt;只是编码器，输出编码矩阵&lt;/div&gt;" style="whiteSpace=wrap;html=1;rounded=1;arcSize=50;align=center;verticalAlign=middle;strokeWidth=1;autosize=1;spacing=4;treeFolding=1;treeMoving=1;newEdgeStyle={&quot;edgeStyle&quot;:&quot;entityRelationEdgeStyle&quot;,&quot;startArrow&quot;:&quot;none&quot;,&quot;endArrow&quot;:&quot;none&quot;,&quot;segment&quot;:10,&quot;curved&quot;:1,&quot;sourcePerimeterSpacing&quot;:0,&quot;targetPerimeterSpacing&quot;:0};" parent="Gr0Zq-AI6Quabplr0KPa-179" vertex="1">
          <mxGeometry x="975" y="24" width="183" height="45" as="geometry" />
        </mxCell>
        <mxCell id="ft4Egp74w97PXZR5ruX3-4" value="" style="edgeStyle=entityRelationEdgeStyle;startArrow=none;endArrow=none;segment=10;curved=1;sourcePerimeterSpacing=0;targetPerimeterSpacing=0;rounded=0;exitX=1;exitY=0.5;exitDx=0;exitDy=0;" parent="Gr0Zq-AI6Quabplr0KPa-179" source="zsPcGqsuuLTQTUiFcxpC-25" target="ft4Egp74w97PXZR5ruX3-3" edge="1">
          <mxGeometry relative="1" as="geometry">
            <mxPoint x="745.0000000000002" y="222.5" as="sourcePoint" />
            <Array as="points">
              <mxPoint x="789" y="217" />
            </Array>
          </mxGeometry>
        </mxCell>
        <mxCell id="ft4Egp74w97PXZR5ruX3-18" value="" style="edgeStyle=entityRelationEdgeStyle;startArrow=none;endArrow=none;segment=10;curved=1;sourcePerimeterSpacing=0;targetPerimeterSpacing=0;rounded=0;exitX=1;exitY=0.5;exitDx=0;exitDy=0;entryX=0;entryY=0.5;entryDx=0;entryDy=0;" parent="Gr0Zq-AI6Quabplr0KPa-179" source="zsPcGqsuuLTQTUiFcxpC-25" target="ft4Egp74w97PXZR5ruX3-14" edge="1">
          <mxGeometry relative="1" as="geometry">
            <mxPoint x="841" y="179" as="sourcePoint" />
            <mxPoint x="895" y="117" as="targetPoint" />
          </mxGeometry>
        </mxCell>
        <mxCell id="zsPcGqsuuLTQTUiFcxpC-10" value="" style="edgeStyle=orthogonalEdgeStyle;elbow=vertical;sourcePerimeterSpacing=0;targetPerimeterSpacing=0;startArrow=none;endArrow=none;rounded=0;curved=1;exitX=1;exitY=0.5;exitDx=0;exitDy=0;entryX=0;entryY=0.5;entryDx=0;entryDy=0;" edge="1" target="zsPcGqsuuLTQTUiFcxpC-25" parent="Gr0Zq-AI6Quabplr0KPa-179" source="Gr0Zq-AI6Quabplr0KPa-180">
          <mxGeometry relative="1" as="geometry">
            <mxPoint x="710.0000000000002" y="170.4999999999999" as="sourcePoint" />
          </mxGeometry>
        </mxCell>
        <mxCell id="zsPcGqsuuLTQTUiFcxpC-25" value="结构" style="whiteSpace=wrap;html=1;rounded=1;arcSize=50;align=center;verticalAlign=middle;strokeWidth=1;autosize=1;spacing=4;treeFolding=1;treeMoving=1;newEdgeStyle={&quot;edgeStyle&quot;:&quot;entityRelationEdgeStyle&quot;,&quot;startArrow&quot;:&quot;none&quot;,&quot;endArrow&quot;:&quot;none&quot;,&quot;segment&quot;:10,&quot;curved&quot;:1,&quot;sourcePerimeterSpacing&quot;:0,&quot;targetPerimeterSpacing&quot;:0};fillColor=#D4D4D4;" vertex="1" parent="Gr0Zq-AI6Quabplr0KPa-179">
          <mxGeometry x="723" y="113.5" width="63" height="30" as="geometry" />
        </mxCell>
        <mxCell id="zsPcGqsuuLTQTUiFcxpC-26" value="应用" style="whiteSpace=wrap;html=1;rounded=1;arcSize=50;align=center;verticalAlign=middle;strokeWidth=1;autosize=1;spacing=4;treeFolding=1;treeMoving=1;newEdgeStyle={&quot;edgeStyle&quot;:&quot;entityRelationEdgeStyle&quot;,&quot;startArrow&quot;:&quot;none&quot;,&quot;endArrow&quot;:&quot;none&quot;,&quot;segment&quot;:10,&quot;curved&quot;:1,&quot;sourcePerimeterSpacing&quot;:0,&quot;targetPerimeterSpacing&quot;:0};fillColor=#CCFFAF;" vertex="1" parent="Gr0Zq-AI6Quabplr0KPa-179">
          <mxGeometry x="455" y="167" width="63" height="30" as="geometry" />
        </mxCell>
        <mxCell id="zsPcGqsuuLTQTUiFcxpC-28" value="" style="edgeStyle=orthogonalEdgeStyle;elbow=vertical;sourcePerimeterSpacing=0;targetPerimeterSpacing=0;startArrow=none;endArrow=none;rounded=0;curved=1;exitX=0;exitY=0.5;exitDx=0;exitDy=0;entryX=1;entryY=0.5;entryDx=0;entryDy=0;" edge="1" parent="Gr0Zq-AI6Quabplr0KPa-179" source="Gr0Zq-AI6Quabplr0KPa-180" target="zsPcGqsuuLTQTUiFcxpC-26">
          <mxGeometry relative="1" as="geometry">
            <mxPoint x="563" y="206.5" as="sourcePoint" />
            <mxPoint x="630" y="164.5" as="targetPoint" />
          </mxGeometry>
        </mxCell>
        <mxCell id="zsPcGqsuuLTQTUiFcxpC-29" value="" style="edgeStyle=orthogonalEdgeStyle;elbow=vertical;sourcePerimeterSpacing=0;targetPerimeterSpacing=0;startArrow=none;endArrow=none;rounded=0;curved=1;exitX=0;exitY=0.5;exitDx=0;exitDy=0;entryX=1;entryY=0.5;entryDx=0;entryDy=0;" edge="1" target="zsPcGqsuuLTQTUiFcxpC-30" source="zsPcGqsuuLTQTUiFcxpC-26" parent="Gr0Zq-AI6Quabplr0KPa-179">
          <mxGeometry relative="1" as="geometry">
            <mxPoint x="554" y="263.5" as="sourcePoint" />
            <mxPoint x="631" y="231.5" as="targetPoint" />
          </mxGeometry>
        </mxCell>
        <mxCell id="zsPcGqsuuLTQTUiFcxpC-30" value="阶段补全" style="whiteSpace=wrap;html=1;rounded=1;arcSize=50;align=center;verticalAlign=middle;strokeWidth=1;autosize=1;spacing=4;treeFolding=1;treeMoving=1;newEdgeStyle={&quot;edgeStyle&quot;:&quot;entityRelationEdgeStyle&quot;,&quot;startArrow&quot;:&quot;none&quot;,&quot;endArrow&quot;:&quot;none&quot;,&quot;segment&quot;:10,&quot;curved&quot;:1,&quot;sourcePerimeterSpacing&quot;:0,&quot;targetPerimeterSpacing&quot;:0};fillColor=#FFFFFF;" vertex="1" parent="Gr0Zq-AI6Quabplr0KPa-179">
          <mxGeometry x="298" y="128" width="87" height="30" as="geometry" />
        </mxCell>
        <mxCell id="zsPcGqsuuLTQTUiFcxpC-36" style="edgeStyle=entityRelationEdgeStyle;rounded=0;orthogonalLoop=1;jettySize=auto;html=1;startArrow=none;endArrow=none;segment=10;curved=1;sourcePerimeterSpacing=0;targetPerimeterSpacing=0;entryX=1;entryY=0.5;entryDx=0;entryDy=0;exitX=0;exitY=0.5;exitDx=0;exitDy=0;" edge="1" parent="Gr0Zq-AI6Quabplr0KPa-179" source="zsPcGqsuuLTQTUiFcxpC-33" target="zsPcGqsuuLTQTUiFcxpC-35">
          <mxGeometry relative="1" as="geometry">
            <mxPoint x="304" y="319" as="sourcePoint" />
            <mxPoint x="253" y="196.5000000000001" as="targetPoint" />
          </mxGeometry>
        </mxCell>
        <mxCell id="zsPcGqsuuLTQTUiFcxpC-33" value="顺序恢复" style="whiteSpace=wrap;html=1;rounded=1;arcSize=50;align=center;verticalAlign=middle;strokeWidth=1;autosize=1;spacing=4;treeFolding=1;treeMoving=1;newEdgeStyle={&quot;edgeStyle&quot;:&quot;entityRelationEdgeStyle&quot;,&quot;startArrow&quot;:&quot;none&quot;,&quot;endArrow&quot;:&quot;none&quot;,&quot;segment&quot;:10,&quot;curved&quot;:1,&quot;sourcePerimeterSpacing&quot;:0,&quot;targetPerimeterSpacing&quot;:0};fillColor=#FFFFFF;" vertex="1" parent="Gr0Zq-AI6Quabplr0KPa-179">
          <mxGeometry x="310" y="199" width="87" height="30" as="geometry" />
        </mxCell>
        <mxCell id="zsPcGqsuuLTQTUiFcxpC-34" value="" style="edgeStyle=orthogonalEdgeStyle;elbow=vertical;sourcePerimeterSpacing=0;targetPerimeterSpacing=0;startArrow=none;endArrow=none;rounded=0;curved=1;exitX=0;exitY=0.5;exitDx=0;exitDy=0;entryX=1;entryY=0.25;entryDx=0;entryDy=0;" edge="1" parent="Gr0Zq-AI6Quabplr0KPa-179" source="zsPcGqsuuLTQTUiFcxpC-26" target="zsPcGqsuuLTQTUiFcxpC-33">
          <mxGeometry relative="1" as="geometry">
            <mxPoint x="693" y="248.5" as="sourcePoint" />
            <mxPoint x="748" y="232.5" as="targetPoint" />
          </mxGeometry>
        </mxCell>
        <mxCell id="zsPcGqsuuLTQTUiFcxpC-35" value="&lt;div&gt;&amp;nbsp; &amp;nbsp; &amp;nbsp; &amp;nbsp; T5&amp;nbsp;&lt;span style=&quot;background-color: transparent; color: light-dark(rgb(0, 0, 0), rgb(255, 255, 255));&quot;&gt;encoder+decoder&lt;/span&gt;&lt;/div&gt;输入：[&quot;on the table.&quot;, &quot;The cat is&quot;]&lt;div&gt;输出：[&quot;The cat is&quot; , &quot;on the table.&quot;]&lt;/div&gt;" style="whiteSpace=wrap;html=1;rounded=1;arcSize=50;align=center;verticalAlign=middle;strokeWidth=1;autosize=1;spacing=4;treeFolding=1;treeMoving=1;newEdgeStyle={&quot;edgeStyle&quot;:&quot;entityRelationEdgeStyle&quot;,&quot;startArrow&quot;:&quot;none&quot;,&quot;endArrow&quot;:&quot;none&quot;,&quot;segment&quot;:10,&quot;curved&quot;:1,&quot;sourcePerimeterSpacing&quot;:0,&quot;targetPerimeterSpacing&quot;:0};fillColor=#FFFFFF;align=left;" vertex="1" parent="Gr0Zq-AI6Quabplr0KPa-179">
          <mxGeometry x="7" y="167" width="227" height="59" as="geometry" />
        </mxCell>
        <mxCell id="zsPcGqsuuLTQTUiFcxpC-40" value="预测下一个词" style="whiteSpace=wrap;html=1;rounded=1;arcSize=50;align=center;verticalAlign=middle;strokeWidth=1;autosize=1;spacing=4;treeFolding=1;treeMoving=1;newEdgeStyle={&quot;edgeStyle&quot;:&quot;entityRelationEdgeStyle&quot;,&quot;startArrow&quot;:&quot;none&quot;,&quot;endArrow&quot;:&quot;none&quot;,&quot;segment&quot;:10,&quot;curved&quot;:1,&quot;sourcePerimeterSpacing&quot;:0,&quot;targetPerimeterSpacing&quot;:0};fillColor=#FFFFFF;" vertex="1" parent="Gr0Zq-AI6Quabplr0KPa-179">
          <mxGeometry x="286" y="238" width="111" height="30" as="geometry" />
        </mxCell>
        <mxCell id="zsPcGqsuuLTQTUiFcxpC-41" value="" style="edgeStyle=orthogonalEdgeStyle;elbow=vertical;sourcePerimeterSpacing=0;targetPerimeterSpacing=0;startArrow=none;endArrow=none;rounded=0;curved=1;exitX=0;exitY=0.5;exitDx=0;exitDy=0;entryX=1;entryY=0.5;entryDx=0;entryDy=0;" edge="1" parent="Gr0Zq-AI6Quabplr0KPa-179" source="zsPcGqsuuLTQTUiFcxpC-26" target="zsPcGqsuuLTQTUiFcxpC-40">
          <mxGeometry relative="1" as="geometry">
            <mxPoint x="693" y="248.5" as="sourcePoint" />
            <mxPoint x="748" y="286.5" as="targetPoint" />
          </mxGeometry>
        </mxCell>
        <mxCell id="zsPcGqsuuLTQTUiFcxpC-42" value="GPT-3 Decoder" style="whiteSpace=wrap;html=1;rounded=1;arcSize=50;align=center;verticalAlign=middle;strokeWidth=1;autosize=1;spacing=4;treeFolding=1;treeMoving=1;newEdgeStyle={&quot;edgeStyle&quot;:&quot;entityRelationEdgeStyle&quot;,&quot;startArrow&quot;:&quot;none&quot;,&quot;endArrow&quot;:&quot;none&quot;,&quot;segment&quot;:10,&quot;curved&quot;:1,&quot;sourcePerimeterSpacing&quot;:0,&quot;targetPerimeterSpacing&quot;:0};fillColor=#FFFFFF;" vertex="1" parent="Gr0Zq-AI6Quabplr0KPa-179">
          <mxGeometry x="108" y="260" width="122" height="30" as="geometry" />
        </mxCell>
        <mxCell id="zsPcGqsuuLTQTUiFcxpC-43" style="edgeStyle=entityRelationEdgeStyle;rounded=0;orthogonalLoop=1;jettySize=auto;html=1;startArrow=none;endArrow=none;segment=10;curved=1;sourcePerimeterSpacing=0;targetPerimeterSpacing=0;entryX=1;entryY=0.5;entryDx=0;entryDy=0;exitX=0;exitY=0.5;exitDx=0;exitDy=0;" edge="1" parent="Gr0Zq-AI6Quabplr0KPa-179" source="zsPcGqsuuLTQTUiFcxpC-40" target="zsPcGqsuuLTQTUiFcxpC-42">
          <mxGeometry relative="1" as="geometry">
            <mxPoint x="835" y="286.5" as="sourcePoint" />
            <mxPoint x="885" y="296.5" as="targetPoint" />
          </mxGeometry>
        </mxCell>
        <mxCell id="zsPcGqsuuLTQTUiFcxpC-44" value="自回归" style="whiteSpace=wrap;html=1;rounded=1;arcSize=50;align=center;verticalAlign=middle;strokeWidth=1;autosize=1;spacing=4;treeFolding=1;treeMoving=1;newEdgeStyle={&quot;edgeStyle&quot;:&quot;entityRelationEdgeStyle&quot;,&quot;startArrow&quot;:&quot;none&quot;,&quot;endArrow&quot;:&quot;none&quot;,&quot;segment&quot;:10,&quot;curved&quot;:1,&quot;sourcePerimeterSpacing&quot;:0,&quot;targetPerimeterSpacing&quot;:0};fillColor=#FFFFFF;" vertex="1" parent="Gr0Zq-AI6Quabplr0KPa-179">
          <mxGeometry x="327" y="320" width="70" height="25" as="geometry" />
        </mxCell>
        <mxCell id="zsPcGqsuuLTQTUiFcxpC-32" value="&lt;div&gt;&amp;nbsp; &amp;nbsp; &amp;nbsp; &amp;nbsp; T5 encoder+decoder&lt;/div&gt;输入：&quot;The cat is on the&quot;&lt;div&gt;输出：&quot;table.&quot;&lt;/div&gt;" style="whiteSpace=wrap;html=1;rounded=1;arcSize=50;align=center;verticalAlign=middle;strokeWidth=1;autosize=1;spacing=4;treeFolding=1;treeMoving=1;newEdgeStyle={&quot;edgeStyle&quot;:&quot;entityRelationEdgeStyle&quot;,&quot;startArrow&quot;:&quot;none&quot;,&quot;endArrow&quot;:&quot;none&quot;,&quot;segment&quot;:10,&quot;curved&quot;:1,&quot;sourcePerimeterSpacing&quot;:0,&quot;targetPerimeterSpacing&quot;:0};fillColor=#FFFFFF;align=left;" vertex="1" parent="Gr0Zq-AI6Quabplr0KPa-179">
          <mxGeometry x="57" y="72.5" width="177" height="59" as="geometry" />
        </mxCell>
        <mxCell id="zsPcGqsuuLTQTUiFcxpC-31" value="" style="edgeStyle=orthogonalEdgeStyle;elbow=vertical;sourcePerimeterSpacing=0;targetPerimeterSpacing=0;startArrow=none;endArrow=none;rounded=0;curved=1;exitX=0;exitY=0.5;exitDx=0;exitDy=0;entryX=0.993;entryY=0.61;entryDx=0;entryDy=0;entryPerimeter=0;" edge="1" target="zsPcGqsuuLTQTUiFcxpC-32" source="zsPcGqsuuLTQTUiFcxpC-30" parent="Gr0Zq-AI6Quabplr0KPa-179">
          <mxGeometry relative="1" as="geometry">
            <mxPoint x="908" y="350.5" as="sourcePoint" />
            <mxPoint x="856" y="343.5" as="targetPoint" />
          </mxGeometry>
        </mxCell>
        <mxCell id="zsPcGqsuuLTQTUiFcxpC-46" style="edgeStyle=entityRelationEdgeStyle;rounded=0;orthogonalLoop=1;jettySize=auto;html=1;startArrow=none;endArrow=none;segment=10;curved=1;sourcePerimeterSpacing=0;targetPerimeterSpacing=0;entryX=1;entryY=0.5;entryDx=0;entryDy=0;exitX=0;exitY=0.5;exitDx=0;exitDy=0;" edge="1" target="zsPcGqsuuLTQTUiFcxpC-47" source="zsPcGqsuuLTQTUiFcxpC-44" parent="Gr0Zq-AI6Quabplr0KPa-179">
          <mxGeometry relative="1" as="geometry">
            <mxPoint x="-258" y="321" as="sourcePoint" />
            <mxPoint x="341" y="342.5" as="targetPoint" />
          </mxGeometry>
        </mxCell>
        <mxCell id="zsPcGqsuuLTQTUiFcxpC-47" value="使用输入编码并将输出和输入拼接作为下一轮输入，&lt;div&gt;是为了逐步生成高质量的文本序列&lt;/div&gt;" style="whiteSpace=wrap;html=1;rounded=1;arcSize=50;align=center;verticalAlign=middle;strokeWidth=1;autosize=1;spacing=4;treeFolding=1;treeMoving=1;newEdgeStyle={&quot;edgeStyle&quot;:&quot;entityRelationEdgeStyle&quot;,&quot;startArrow&quot;:&quot;none&quot;,&quot;endArrow&quot;:&quot;none&quot;,&quot;segment&quot;:10,&quot;curved&quot;:1,&quot;sourcePerimeterSpacing&quot;:0,&quot;targetPerimeterSpacing&quot;:0};fillColor=#FFFFFF;align=left;" vertex="1" parent="Gr0Zq-AI6Quabplr0KPa-179">
          <mxGeometry x="5" y="316" width="293" height="43" as="geometry" />
        </mxCell>
        <mxCell id="zsPcGqsuuLTQTUiFcxpC-48" value="" style="edgeStyle=orthogonalEdgeStyle;elbow=vertical;sourcePerimeterSpacing=0;targetPerimeterSpacing=0;startArrow=none;endArrow=none;rounded=0;curved=1;exitX=0;exitY=0.5;exitDx=0;exitDy=0;entryX=1;entryY=0.5;entryDx=0;entryDy=0;" edge="1" parent="Gr0Zq-AI6Quabplr0KPa-179" source="zsPcGqsuuLTQTUiFcxpC-26" target="zsPcGqsuuLTQTUiFcxpC-44">
          <mxGeometry relative="1" as="geometry">
            <mxPoint x="465" y="192" as="sourcePoint" />
            <mxPoint x="407" y="285" as="targetPoint" />
          </mxGeometry>
        </mxCell>
      </root>
    </mxGraphModel>
  </diagram>
</mxfile>
